<?xml version="1.0" encoding="utf-8"?>
<!-- Generator: Adobe Illustrator 23.1.0, SVG Export Plug-In . SVG Version: 6.00 Build 0)  -->
<svg version="1.1" id="Слой_1" xmlns="http://www.w3.org/2000/svg" xmlns:xlink="http://www.w3.org/1999/xlink" x="0px" y="0px"
	 viewBox="0 0 380.76 44.8" style="enable-background:new 0 0 380.76 44.8;" xml:space="preserve">
<path d="M98.02,27.88c-1.09-1-2.61-2.38-4.28-3.87c-2.34-2.09-4.98-4.42-7.17-6.26c-3.75-3.15-6.18-4.89-8.64-6.65
	c-2.47-1.76-4.98-3.55-6.77-4.44c-1.78-0.9-2.84-0.9-3.52-0.91h0h0c-0.68,0-1.74,0.01-3.52,0.91c-1.78,0.9-4.3,2.68-6.77,4.44
	c-2.47,1.76-4.89,3.5-8.65,6.65c-2.19,1.84-4.83,4.17-7.17,6.26c-1.67,1.49-3.19,2.87-4.28,3.87c-2.62,2.4-2.79,2.62-2.82,2.88
	c-0.03,0.26,0.06,0.54,0.17,0.84c0.11,0.3,0.24,0.62,0.4,0.85c0.17,0.23,0.38,0.38,0.61,0.48c0.24,0.1,0.51,0.16,1.34,0.35
	c0.84,0.19,2.24,0.51,6.23,1.08c3.99,0.58,10.56,1.41,24.44,1.58h0h0c13.88-0.16,20.45-1,24.44-1.58c3.99-0.58,5.39-0.9,6.23-1.08
	c0.84-0.19,1.1-0.24,1.34-0.35c0.24-0.1,0.45-0.25,0.61-0.48c0.17-0.23,0.29-0.55,0.4-0.85c0.11-0.3,0.21-0.58,0.17-0.84
	C100.81,30.5,100.64,30.28,98.02,27.88 M49.39,24.64c0.08-0.19,0.21-0.36,0.49-0.63c0.38-0.36,1.04-0.89,2.21-1.86
	c2.77-2.29,8.42-7.03,12.06-9.06c1.77-0.98,3.05-1.06,3.48-1.06c0.43,0,1.71,0.07,3.48,1.06c3.64,2.03,9.29,6.77,12.06,9.06
	c1.18,0.97,1.83,1.5,2.21,1.86c0.28,0.27,0.41,0.44,0.49,0.63c0.06,0.15,0.1,0.31,0.08,0.48c-0.17,1.1-2.61,4.77-3.1,4.83
	c-0.44,0.22-1.07,0.29-3.31,0.47c-2.24,0.18-6.1,0.48-11.91,0.48c-5.81,0-9.67-0.3-11.91-0.48c-2.24-0.18-2.88-0.25-3.31-0.47
	c-0.49-0.06-2.93-3.73-3.1-4.83C49.28,24.95,49.32,24.79,49.39,24.64z M95.58,32.84c-2.91,0.51-6.16,0.99-9.92,1.34
	c-5.5,0.51-12.06,0.75-18.04,0.81c-5.98-0.06-12.54-0.29-18.04-0.81c-3.75-0.35-7.01-0.83-9.92-1.34c-0.23-0.04-0.22-0.32,0.01-0.35
	c4.26-0.46,8.52-0.93,12.78-1.39c0.19-0.02,0.39-0.02,0.58,0c1.5,0.17,2.55,0.27,4.01,0.38c2.32,0.17,5.7,0.35,10.57,0.35h0h0
	c4.87,0,8.24-0.18,10.57-0.35c1.46-0.11,2.51-0.21,4.01-0.38c0.19-0.02,0.39-0.02,0.58,0c4.26,0.46,8.52,0.93,12.78,1.39
	C95.8,32.52,95.81,32.8,95.58,32.84z"/>
<path d="M98.93,37.21c-10.39,2.02-20.74,2.8-31.3,2.8c-10.56,0-20.91-0.78-31.3-2.8c-6.56-1.27-23.88-5.26-27.66-13.19
	c2.91-0.75,5.82-1.49,8.74-2.24c0.51,0.91,1.14,1.64,1.85,2.24c1.63,1.39,3.62,2.06,5.22,2.49c2.28,0.61,3.75,0.74,5.01,0.59
	c1.26-0.14,2.33-0.56,5.03-2.49c0.25-0.18,7.55-5.79,12.46-9.72c1.99-1.59,4.12-3.3,5.96-4.8c3.16-2.58,5.42-4.51,7.39-5.75
	c2.91-1.83,5.2-2.16,7.3-2.16c2.1,0,4.39,0.33,7.3,2.16c1.97,1.24,4.23,3.17,7.4,5.75c1.83,1.5,3.97,3.21,5.95,4.8
	c4.91,3.93,12.21,9.54,12.46,9.72c2.7,1.93,3.76,2.34,5.03,2.49c1.26,0.14,2.73,0.02,5.01-0.59c1.6-0.43,3.59-1.1,5.21-2.49
	c0.7-0.6,1.34-1.33,1.85-2.24c2.91,0.75,5.82,1.49,8.74,2.24C122.81,31.95,105.49,35.94,98.93,37.21 M0,22.38v0.04
	c0.01,2.56,1.3,4.73,2.94,6.51c2.57,2.79,6.12,4.83,9.46,6.39c5.76,2.7,11.71,4.39,17.88,5.75c11.95,2.62,25.16,3.73,37.36,3.73
	c12.19,0,25.4-1.1,37.36-3.73c6.17-1.35,12.12-3.05,17.88-5.75c3.34-1.57,6.89-3.6,9.46-6.39c1.64-1.78,2.94-3.96,2.94-6.53
	c0-2.57-1.3-4.75-2.94-6.53c-2.57-2.79-6.12-4.83-9.46-6.4c-5.76-2.7-11.71-4.39-17.87-5.75C93.03,1.1,79.82,0,67.63,0
	c-12.19,0-25.4,1.1-37.35,3.73C24.11,5.08,18.16,6.77,12.4,9.47c-3.34,1.57-6.89,3.61-9.46,6.4C1.3,17.64,0.01,19.82,0,22.38z
	 M127.25,21.23c0-1.46-0.53-2.83-1.48-4.15c-1.51-2.09-3.43-3.44-5.59-4.71c-4.33-2.54-8.9-4.07-13.68-5.37
	c-9.2-2.49-19.62-3.79-29.09-4.28c1.12,0.81,2.25,1.62,3.37,2.43c13.59,1.14,22.65,3.44,28.26,5.73c6.06,2.47,8.1,4.92,8.53,7.13
	c0.42,2.21-0.76,4.19-2.41,5.49c-0.24,0.19-0.49,0.36-0.75,0.52c-1.5,0.94-3.25,1.43-4.73,1.78c-1.74,0.41-3.11,0.62-4.73,0.16
	c-0.64-0.18-1.32-0.46-3.39-1.94c-3.17-2.27-9.6-7.33-24.15-19.12c-1.43-1.09-2.86-2.06-4.57-2.72c-1.71-0.65-3.39-0.95-5.22-0.95
	c-1.82,0-3.51,0.29-5.22,0.95c-1.7,0.65-3.14,1.63-4.57,2.72C43.3,16.69,36.87,21.76,33.7,24.02c-2.08,1.48-2.75,1.77-3.39,1.94
	c-1.61,0.45-2.99,0.24-4.73-0.16c-1.48-0.35-3.23-0.84-4.73-1.78c-0.26-0.16-0.51-0.33-0.75-0.52c-1.64-1.29-2.83-3.27-2.41-5.49
	c0.43-2.21,2.47-4.66,8.53-7.13c5.61-2.29,14.68-4.59,28.27-5.73c1.12-0.81,2.25-1.62,3.37-2.43c-9.48,0.5-19.89,1.79-29.09,4.28
	c-4.79,1.3-9.35,2.82-13.68,5.37c-2.16,1.27-4.08,2.62-5.59,4.71c-0.95,1.31-1.48,2.69-1.48,4.15C8.01,21.22,2,20.57,2,20.57
	s0.13-0.48,0.37-1.05c1.33-3.13,4.12-5.48,6.8-7.24c5.36-3.52,12.49-5.93,18.58-7.49C39.88,1.69,55.16,0.2,67.63,0.33h0h0
	C80.1,0.2,95.38,1.69,107.52,4.8c6.09,1.56,13.22,3.96,18.58,7.49c2.68,1.76,5.47,4.1,6.8,7.24c0.24,0.56,0.37,1.05,0.37,1.05
	S127.25,21.22,127.25,21.23z"/>
<path d="M323.34,19.47c0.6,0,1.09-0.49,1.09-1.09v-3.56c0-0.6-0.49-1.08-1.09-1.08c-9.04,0-18.08,0-27.13,0V37.5h-6.75V7.3h35.14
	c3.23,0,5.86,2.62,5.86,5.86v5.95c0,3.24-2.62,5.86-5.86,5.86h-11.04L330.6,37.5h-11.44l-22.99-18.03H323.34z"/>
<path d="M251.47,13.73h32.55V7.3h-34.64c-3.23,0-5.85,2.62-5.85,5.86v18.5c0,3.23,2.62,5.85,5.85,5.85h34.64v-6.43h-32.55
	c0,0-1.09,0-1.09-1.3v-3.94v-0.22h30.55v-6.43h-30.55v-4.16C250.38,13.73,251.47,13.73,251.47,13.73"/>
<polygon points="204.38,7.3 204.38,18.71 231.34,18.71 231.34,7.3 238.08,7.3 238.08,37.5 231.34,37.5 231.34,25.83 204.38,25.83 
	204.38,37.5 197.64,37.5 197.64,7.3 "/>
<path d="M152.24,31.65c0,3.23,2.62,5.85,5.85,5.85h34.1v-7h-32.01c-0.6,0-1.09-0.49-1.09-1.09V15.38c0-0.6,0.49-1.09,1.09-1.09
	h32.01v-7h-34.1c-3.23,0-5.85,2.62-5.85,5.86V31.65z"/>
<polygon points="356.5,21.33 370.88,7.3 380.76,7.3 360.41,27.01 360.41,37.5 352.09,37.5 352.09,27.06 331.67,7.3 341.57,7.3 "/>
</svg>
