<svg width="95" height="37" viewBox="0 0 95 37" fill="none" xmlns="http://www.w3.org/2000/svg">
<path d="M63 17.5C63 17.5 62.8048 20.4703 61.7313 23.3347C60.9993 25.3178 59.5354 28.2924 58.7059 30H56.51H35.7225C35.7225 30 33.0259 25.7233 32.0988 21.592C31.5132 18.9479 33.7218 18.1017 33.7218 18.1017" stroke="#E1E0E0" stroke-width="0.7" stroke-miterlimit="10"/>
<path d="M52 11C52 11 51 19.9202 51 23.6667C51 25.2188 51.0278 29.1972 51 30" stroke="#E1E0E0" stroke-width="0.7" stroke-miterlimit="10"/>
<path d="M52.3112 18.3042L52.8069 11.1249M52.3112 18.3042L33.4774 18.8012C35.7573 17.034 41.8039 12.8369 48.3462 11.6772C49.2383 11.5115 51.622 11.1249 52.8069 11.1249M52.3112 18.3042C52.3112 18.3042 58.874 18.1864 63 17.4758C66.1714 16.9297 71 15.5 71 15.5L68.3695 14.4384C68.1713 14.328 67.9235 14.2175 67.7748 14.1623C66.8827 13.7205 65.9905 13.3339 65.2471 13.0578C62.2733 11.9533 59.2004 10.9593 54.5415 11.0697C54.2937 11.0697 53.0547 11.1249 52.8069 11.1249M51.766 11.1249L51.1217 14.7146L50.4774 18.3042M17.5 32C17 26 21.5802 23.3987 25 23.3987C28.5685 23.3987 31 26 31.5539 28.2999C32.1079 30.5998 32 32 32 32H61.422C61.422 32 61 30 62 27.5C63 25 65.1392 23.3968 68.7573 23.3968C72.3754 23.3968 74.5 25.5 75 27C75.5 28.5 75.9439 30.1223 75.9439 30.1223C76.7369 30.0119 78.5083 30.0342 79.5 29.5C80.2885 29.0753 80.4454 28.3866 80.4949 28C80.5941 27.3925 80.4949 25.0969 80.4949 23.8819C80.4949 22 79.7602 18.9516 78.7602 17.4758C77.7602 16 75.6268 13.6653 74.2886 13.0026C73.4461 12.5608 73.0991 12.0085 73 11.6772C71.3149 11.4011 59.0022 9.41296 55.3841 9.35774C52.113 9.30251 48.6932 9.96521 46.4133 10.3518C42.6961 11.0145 38.1859 13.831 34.5678 16.0952C32.387 17.4206 30.7019 18.5251 29.6611 18.8012C29.2646 18.9117 28.5211 18.9117 27.3812 18.9669C24.5065 19.0773 19.7485 19.2982 15.9322 20.8998C11.7689 22.667 11.3229 25.0969 11.3229 25.0969C11.2237 25.9252 11.6202 31.503 12.1654 31.9448C12.5619 32 14.8732 32 17.5 32Z" stroke="#7C7979" stroke-width="0.7" stroke-miterlimit="10"/>
<path d="M63.8099 12.1822L63 17.5" stroke="#7C7979" stroke-width="0.7" stroke-miterlimit="10"/>
<path d="M63.0081 30.4477C63.0081 33.5702 65.5358 36.0979 68.6583 36.0979C71.7807 36.0979 74.3084 33.5702 74.3084 30.4477C74.3084 27.3253 71.7807 24.7976 68.6583 24.7976C65.5358 24.7976 63.0081 27.3253 63.0081 30.4477Z" stroke="#7C7979" stroke-width="0.7" stroke-miterlimit="10"/>
<path d="M19.0956 30.4477C19.0956 33.5702 21.6232 36.0979 24.7457 36.0979C27.8681 36.0979 30.3958 33.5702 30.3958 30.4477C30.3958 27.3253 27.8681 24.7976 24.7457 24.7976C21.6232 24.7976 19.0956 27.3253 19.0956 30.4477Z" stroke="#7C7979" stroke-width="0.7" stroke-miterlimit="10"/>
</svg>
