<svg width="81" height="35" viewBox="0 0 81 35" fill="none" xmlns="http://www.w3.org/2000/svg">
<path d="M12.2355 23.3574L12.2851 23.0105C12.8303 19.6402 15.7545 17.1125 19.1743 17.1125C22.7428 17.1125 25.7662 19.7889 26.1131 23.3574L26.5592 26.6781H56.1977L56.5446 23.3574C56.9411 19.8385 59.9149 17.1621 63.5329 17.1621C67.151 17.1621 70.1743 19.888 70.5213 23.5061L70.7195 24.993C71.5125 24.8939 73.495 24.646 74.4367 24.2C75.6758 23.6052 75.8741 23.2583 75.9236 22.9114C76.0228 22.3662 76.2706 20.4828 76.2706 19.3924C76.2706 18.9959 75.8245 18.649 75.3784 18.3516C74.8828 18.0046 74.3872 17.6081 74.3872 17.0134C74.3872 16.7656 74.4367 16.3691 74.4863 15.9726C74.5359 15.3283 74.7341 13.8909 74.5359 13.6431C74.0402 13.1971 67.2997 9.87636 65.9615 9.2816C65.1189 8.8851 64.772 8.38948 64.6729 8.0921C62.9877 7.84429 52.7778 6.40697 49.1598 6.3574C45.8886 6.30784 42.4688 6.90259 40.1889 7.24953C36.4717 7.84429 31.9615 10.372 28.3434 12.4041C26.1627 13.5936 24.4775 14.5848 23.4367 14.8326C23.0402 14.9318 22.2968 14.9318 21.1568 14.9813C18.2822 15.0804 13.5242 15.2787 9.70783 16.716C5.54456 18.302 5.09849 20.4828 5.09849 20.4828C4.99936 21.2262 5.39587 26.2321 5.94106 26.6286C6.33756 26.6781 9.31133 26.6781 11.9382 26.6781L12.2355 23.3574ZM46.0869 14.3866L61.8478 13.8909L62.1452 10.9172C61.9469 10.818 61.6991 10.7189 61.5504 10.6694C60.6583 10.2729 59.7662 9.92592 59.0227 9.67811C56.049 8.68685 52.9761 7.79472 48.3172 7.89385C48.0694 7.89385 46.8303 7.94341 46.5825 7.94341L46.0869 14.3866Z" />
<path d="M46.0869 14.3866L61.8478 13.8909L62.1452 10.9172C61.9469 10.818 61.6991 10.7189 61.5504 10.6694C60.6583 10.2729 59.7662 9.92592 59.0227 9.67811C56.049 8.68685 52.9761 7.79472 48.3172 7.89385C48.0694 7.89385 46.8303 7.94341 46.5825 7.94341M46.0869 14.3866L46.5825 7.94341M46.0869 14.3866L27.253 14.8326C29.5329 13.2466 35.5796 9.47986 42.1218 8.43904C43.014 8.29035 45.3976 7.94341 46.5825 7.94341M45.5417 7.94341L44.8973 11.165L44.253 14.3866M12.2355 23.3574L12.2851 23.0105C12.8303 19.6402 15.7545 17.1125 19.1743 17.1125C22.7428 17.1125 25.7662 19.7889 26.1131 23.3574L26.5592 26.6781H56.1977L56.5446 23.3574C56.9411 19.8385 59.9149 17.1621 63.5329 17.1621C67.151 17.1621 70.1743 19.888 70.5213 23.5061L70.7195 24.993C71.5125 24.8939 73.4951 24.646 74.4367 24.2C75.6758 23.6052 75.8741 23.2583 75.9236 22.9114C76.0228 22.3662 76.2706 20.4828 76.2706 19.3924C76.2706 18.9959 75.8245 18.649 75.3784 18.3516C74.8828 18.0046 74.3872 17.6081 74.3872 17.0134C74.3872 16.7656 74.4367 16.3691 74.4863 15.9726C74.5359 15.3283 74.7341 13.8909 74.5359 13.6431C74.0402 13.1971 67.2997 9.87636 65.9615 9.2816C65.1189 8.8851 64.772 8.38948 64.6729 8.0921C62.9877 7.84429 52.7778 6.40697 49.1598 6.3574C45.8886 6.30784 42.4688 6.90259 40.1889 7.24953C36.4717 7.84429 31.9615 10.372 28.3434 12.4041C26.1627 13.5936 24.4775 14.5848 23.4367 14.8326C23.0402 14.9318 22.2968 14.9318 21.1568 14.9813C18.2822 15.0804 13.5242 15.2787 9.70783 16.716C5.54456 18.302 5.09849 20.4828 5.09849 20.4828C4.99936 21.2262 5.39587 26.2321 5.94106 26.6286C6.33756 26.6781 9.31133 26.6781 11.9382 26.6781L12.2355 23.3574Z" stroke="#828282" stroke-width="0.60984" stroke-miterlimit="10"/>
<path d="M56.9907 13.8411C56.9907 13.8411 56.7925 16.9635 55.7021 19.5408C54.9587 21.325 53.4718 24.0014 52.6292 25.5379H50.3989H29.2852C29.2852 25.5379 26.5463 21.6899 25.6046 17.9727C25.0099 15.5937 27.2531 14.8323 27.2531 14.8323" stroke="#d4d3d3" stroke-width="0.7" stroke-miterlimit="10"/>
<path d="M46.0869 7.8938C46.0869 7.8938 44.6 16.2706 44.6 19.7888C44.6 21.2464 44.6413 24.9825 44.6 25.7364" stroke="#d4d3d3" stroke-width="0.7" stroke-miterlimit="10"/>
<path d="M46.0869 14.3866L61.8478 13.8909L62.1452 10.9172C61.9469 10.818 61.6991 10.7189 61.5504 10.6694C60.6583 10.2729 59.7662 9.92592 59.0227 9.67811C56.049 8.68685 52.9761 7.79472 48.3172 7.89385C48.0694 7.89385 46.8303 7.94341 46.5825 7.94341M46.0869 14.3866L46.5825 7.94341M46.0869 14.3866L27.253 14.8326C29.5329 13.2466 35.5796 9.47986 42.1218 8.43904C43.014 8.29035 45.3976 7.94341 46.5825 7.94341M45.5417 7.94341L44.8973 11.165L44.253 14.3866M12.2355 23.3574L12.2851 23.0105C12.8303 19.6402 15.7545 17.1125 19.1743 17.1125C22.7428 17.1125 25.7662 19.7889 26.1131 23.3574L26.5592 26.6781H56.1977L56.5446 23.3574C56.9411 19.8385 59.9149 17.1621 63.5329 17.1621C67.151 17.1621 70.1743 19.888 70.5213 23.5061L70.7195 24.993C71.5125 24.8939 73.4951 24.646 74.4367 24.2C75.6758 23.6052 75.8741 23.2583 75.9236 22.9114C76.0228 22.3662 76.2706 20.4828 76.2706 19.3924C76.2706 18.9959 75.8245 18.649 75.3784 18.3516C74.8828 18.0046 74.3872 17.6081 74.3872 17.0134C74.3872 16.7656 74.4367 16.3691 74.4863 15.9726C74.5359 15.3283 74.7341 13.8909 74.5359 13.6431C74.0402 13.1971 67.2997 9.87636 65.9615 9.2816C65.1189 8.8851 64.772 8.38948 64.6729 8.0921C62.9877 7.84429 52.7778 6.40697 49.1598 6.3574C45.8886 6.30784 42.4688 6.90259 40.1889 7.24953C36.4717 7.84429 31.9615 10.372 28.3434 12.4041C26.1627 13.5936 24.4775 14.5848 23.4367 14.8326C23.0402 14.9318 22.2968 14.9318 21.1568 14.9813C18.2822 15.0804 13.5242 15.2787 9.70783 16.716C5.54456 18.302 5.09849 20.4828 5.09849 20.4828C4.99936 21.2262 5.39587 26.2321 5.94106 26.6286C6.33756 26.6781 9.31133 26.6781 11.9382 26.6781L12.2355 23.3574Z" stroke="#828282" stroke-width="0.7" stroke-miterlimit="10"/>
<path d="M57.5855 9.18213L56.9907 14.1384" stroke="#828282" stroke-width="0.7" stroke-miterlimit="10"/>
<path d="M57.7838 24.4478C57.7838 27.5702 60.3115 30.0979 63.434 30.0979C66.5564 30.0979 69.0841 27.5702 69.0841 24.4478C69.0841 21.3253 66.5564 18.7976 63.434 18.7976C60.3115 18.7976 57.7838 21.3253 57.7838 24.4478Z"  stroke="#828282" stroke-width="0.7" stroke-miterlimit="10"/>
<path d="M13.8712 24.4478C13.8712 27.5702 16.3989 30.0979 19.5214 30.0979C22.6438 30.0979 25.1715 27.5702 25.1715 24.4478C25.1715 21.3253 22.6438 18.7976 19.5214 18.7976C16.3989 18.7976 13.8712 21.3253 13.8712 24.4478Z"  stroke="#828282" stroke-width="0.7" stroke-miterlimit="10"/>
</svg>
