<svg width="80" height="38" fill="none" xmlns="http://www.w3.org/2000/svg">
    <path
        d="M9.255 28.75l-.05.348-.248 3.37c-4.262 0-7.186 0-7.484-.05-.545-.346-.941-4.708-.842-5.402 0-.05.644-4.46 4.609-5.997 2.458-.934 7.354-1.478 11.351-1.922l.098-.01c2.28-.249 4.262-.447 5.254-.695 1.04-.248 2.726-1.19 4.906-2.428 3.619-2.032 8.129-4.56 11.846-5.155 2.28-.347 5.65-.942 8.97-.892 3.371 0 7.286.545 10.756 1.487 2.726.743 5.254 1.982 7.434 3.073 1.784.892 3.37 1.685 4.66 1.933 1.337.297 2.923.347 4.311.446 1.09.05 2.429.148 2.677.297.198.397 0 3.32-.1 4.46 0 .546-.05.942-.05 1.14 0 .596.496.992.992 1.339.446.297.892.644.892 1.04 0 1.14-.248 3.024-.347 3.52-.05.347-.248.694-1.487 1.288-1.19.545-4.014.843-4.064.843-.347.05-1.734.297-2.379.892-.05-.1-.05-.149-.099-.248l-.05-.05-.297-2.13a7.002 7.002 0 00-6.988-6.345c-3.618 0-6.592 2.677-6.989 6.196l-.346 3.32H23.529l-.446-3.32c-.347-3.569-3.37-6.245-6.94-6.245-3.419 0-6.343 2.527-6.888 5.898z"
        />
    <path
        d="M46.898 10.958l-1.017 7.186m15.083-3.663l-.506 3.243m-16.237-6.617l-1.908 7.21m17.843-4.237l-1.048 3.684M9.205 29.098l.05-.347c.545-3.37 3.469-5.898 6.889-5.898 3.568 0 6.592 2.676 6.939 6.245l.446 3.32H56.19l.346-3.32c.397-3.52 3.37-6.196 6.989-6.196a7.002 7.002 0 016.988 6.344l.297 2.132.05.05c.05.098.05.148.1.247.644-.595 2.031-.843 2.378-.892.05 0 2.875-.298 4.064-.843 1.24-.594 1.438-.941 1.487-1.288.1-.496.347-2.38.347-3.52 0-.396-.446-.743-.892-1.04-.496-.347-.991-.743-.991-1.338 0-.199.05-.595.05-1.14.099-1.14.297-4.064.099-4.46-.248-.15-1.587-.249-2.677-.298-1.388-.1-2.974-.149-4.312-.446-1.288-.248-2.874-1.041-4.659-1.933-2.18-1.09-4.708-2.33-7.434-3.073-3.47-.942-7.385-1.487-10.755-1.487-3.321-.05-6.691.545-8.971.892-3.717.595-8.227 3.123-11.846 5.155-2.18 1.239-3.866 2.18-4.906 2.428-.992.248-2.974.446-5.254.694-4.015.446-8.97.991-11.449 1.933C1.275 22.556.63 26.967.63 27.016c-.098.694.298 5.056.843 5.402.298.05 3.222.05 7.484.05l.248-3.37zm15.96-10.21l.842-.645.05-.05c.545-.445 7.384-5.5 14.77-6.69 1.189-.221 3.91-.545 6.244-.545 4.163 0 6.89.793 9.615 1.685.694.264 2.27.882 3.023 1.239a60.15 60.15 0 015.75 3.073l.941.595-8.425.247-32.81 1.09z"
        stroke="#828282" stroke-width=".491" stroke-miterlimit="10"/>
    <path d="M68.5 13L65 9.5M69 8l-6 5" stroke="#E1E0E0" stroke-width=".7"/>
    <path
        d="M59.065 17.798s-.743 2.924-1.933 6.047c-.843 2.13-2.924 5.6-4.114 7.335H28.04s-2.974-4.064-3.965-8.525c-.645-2.825 1.11-3.726 1.11-3.726l.615-.308"
        stroke="#E1E0E0" stroke-width=".7" stroke-miterlimit="10"/>
    <path d="M45.435 11.057s-2.527 13.432-2.527 16.901c0 1.437 0 2.478-.05 3.222" stroke="#E1E0E0" stroke-width=".7"
          stroke-miterlimit="10"/>
    <path
        d="M46.898 10.958l-1.017 7.186m15.083-3.663l-.506 3.243m-16.237-6.617l-1.908 7.21m17.843-4.237l-1.048 3.684M9.205 29.098l.05-.347c.545-3.37 3.469-5.898 6.889-5.898 3.568 0 6.592 2.676 6.939 6.245l.446 3.32H56.19l.346-3.32c.397-3.52 3.37-6.196 6.989-6.196a7.002 7.002 0 016.988 6.344l.297 2.132.05.05c.05.098.05.148.1.247.644-.595 2.031-.843 2.378-.892.05 0 2.875-.298 4.064-.843 1.24-.594 1.438-.941 1.487-1.288.1-.496.347-2.38.347-3.52 0-.396-.446-.743-.892-1.04-.496-.347-.991-.743-.991-1.338 0-.199.05-.595.05-1.14.099-1.14.297-4.064.099-4.46-.248-.15-1.587-.249-2.677-.298-1.388-.1-2.974-.149-4.312-.446-1.288-.248-2.874-1.041-4.659-1.933-2.18-1.09-4.708-2.33-7.434-3.073-3.47-.942-7.385-1.487-10.755-1.487-3.321-.05-6.691.545-8.971.892-3.717.595-8.227 3.123-11.846 5.155-2.18 1.239-3.866 2.18-4.906 2.428-.992.248-2.974.446-5.254.694-4.015.446-8.97.991-11.449 1.933C1.275 22.556.63 26.967.63 27.016c-.098.694.298 5.056.843 5.402.298.05 3.222.05 7.484.05l.248-3.37zm15.96-10.21l.842-.645.05-.05c.545-.445 7.384-5.5 14.77-6.69 1.189-.221 3.91-.545 6.244-.545 4.163 0 6.89.793 9.615 1.685.694.264 2.27.882 3.023 1.239a60.15 60.15 0 015.75 3.073l.941.595-8.425.247-32.81 1.09z"
        stroke="#7C7979" stroke-width=".7" stroke-miterlimit="10"/>
    <path
        d="M77.18 7.77c-.657-.937-2.386-3.303-2.793-3.48-.263.043-1.211.715-2.037 1.34a43.75 43.75 0 00-.203.155c-1.127.817-2.373 1.799-3.589 2.432a7.366 7.366 0 01-.886.412c-1.072.421-2.434.748-3.924 1.105-2.171.52-2.877.758-5.248 1.766"
        stroke="#7C7979" stroke-width=".7" stroke-miterlimit="10"/>
    <path
        d="M57.677 30.235a5.648 5.648 0 005.65 5.65 5.648 5.648 0 005.65-5.65 5.648 5.648 0 00-5.65-5.65 5.648 5.648 0 00-5.65 5.65zM10.593 30.235a5.648 5.648 0 005.65 5.65 5.648 5.648 0 005.65-5.65 5.648 5.648 0 00-5.65-5.65 5.648 5.648 0 00-5.65 5.65z"
        stroke="#7C7979" stroke-width=".7" stroke-miterlimit="10"/>
    <path d="M66.5 15l2.5-3" stroke="#7C7979" stroke-width=".7"/>
</svg>
