<svg width="81" height="35" viewBox="0 0 81 35" fill="none" xmlns="http://www.w3.org/2000/svg">
<path d="M22.9438 2.42007C24.5691 1.31487 26.7795 1.18485 26.7795 1.18485L27.8522 1.15234H77.4733H78.7053C78.9104 1.20423 79.3207 1.43107 79.3207 1.92338V26.417C79.3207 26.7653 79.0745 27.4618 78.0899 27.4618H71.9361C71.8335 25.2054 70.3976 20.6926 64.8591 20.6926C59.9361 20.6926 58.0899 25.2054 58.0899 27.4618L21.7822 27.3846C21.5771 25.1539 20.0538 20.6926 15.013 20.6926C9.47453 20.6926 8.22548 25.1539 7.93606 27.3846H3.01768C2.20502 26.6695 1.78243 25.8243 1.78243 25.8243C1.78243 25.8243 2.00994 20.2983 2.07495 18.8356C2.13996 17.3728 3.05013 16.5276 3.05013 16.5276L9.87637 11.5867L11.5667 11.5542C11.5667 11.5542 21.351 3.52527 22.9438 2.42007Z"  stroke="#828282" stroke-width="0.7" stroke-miterlimit="10" stroke-linecap="round"/>
<path d="M33.1179 3.59024L26.9744 3.68775C26.9744 3.68775 26.3242 3.55773 25.6416 4.30537C24.9264 5.053 19.563 10.6115 19.563 10.6115C19.563 10.6115 19.1404 11.4242 18.9454 12.3343C18.9454 12.3343 18.8479 12.9194 19.5955 12.9519C20.3432 12.9844 32.7604 12.7894 32.7604 12.7894C32.7604 12.7894 33.638 12.8869 33.7031 11.9768C33.8006 11.0666 33.9631 4.24035 33.9631 4.24035C33.9631 4.24035 34.2231 3.55773 33.1179 3.59024Z" stroke="#828282" stroke-width="0.7" stroke-miterlimit="10"/>
<path d="M22.4562 2.77734H23.4638C23.4638 2.77734 24.7641 3.1024 24.0489 3.68751C23.3338 4.30512 15.8575 11.619 15.8575 11.619L11.5342 11.5539" stroke="#828282" stroke-width="0.7" stroke-miterlimit="10"/>
<path d="M36.2432 1L35.6278 27.4615" stroke="#d4d3d3" stroke-width="0.7" stroke-miterlimit="10"/>
<path d="M55.9355 1V27.4615" stroke="#d4d3d3" stroke-width="0.7" stroke-miterlimit="10"/>
<path d="M3.04996 16.4625L6.59315 16.3325L6.62561 19.0305H2.09075" stroke="#828282" stroke-width="0.7" stroke-miterlimit="10"/>
<path d="M39.5867 12.1392C39.5867 12.4643 40.0093 12.6919 40.5294 12.6919H52.4916C53.0117 12.6919 53.4342 12.4318 53.4342 12.1392V4.04528C53.4342 3.72022 53.0117 3.49268 52.4916 3.49268H40.5294C40.0093 3.49268 39.5867 3.75272 39.5867 4.04528V12.1392Z" stroke="#828282" stroke-width="0.7" stroke-miterlimit="10"/>
<path d="M58.8952 12.1392C58.8952 12.4643 59.1228 12.6919 59.3828 12.6919H65.8515C66.1441 12.6919 66.3391 12.4318 66.3391 12.1392V4.04528C66.3391 3.72022 66.1116 3.49268 65.8515 3.49268H59.3828C59.0902 3.49268 58.8952 3.75272 58.8952 4.04528V12.1392Z" stroke="#828282" stroke-width="0.7" stroke-miterlimit="10"/>
<path d="M68.5169 12.1392C68.5169 12.4643 68.7444 12.6919 69.0045 12.6919H75.4731C75.7657 12.6919 75.9607 12.4318 75.9607 12.1392V4.04528C75.9607 3.72022 75.7332 3.49268 75.4731 3.49268H69.0045C68.7119 3.49268 68.5169 3.75272 68.5169 4.04528V12.1392Z" stroke="#828282" stroke-width="0.7" stroke-miterlimit="10"/>
<path d="M42.1871 15.5847H39.9117" stroke="#d4d3d3" stroke-width="0.7" stroke-miterlimit="10" stroke-linecap="round" stroke-linejoin="round"/>
<path d="M9.25024 27.4317C9.25024 30.5269 11.7559 33.0325 14.8511 33.0325C17.9463 33.0325 20.452 30.5269 20.452 27.4317C20.452 24.3365 17.9463 21.8308 14.8511 21.8308C11.7559 21.8308 9.25024 24.3365 9.25024 27.4317Z"  stroke="#828282" stroke-width="0.7" stroke-miterlimit="10"/>
<path d="M59.4509 27.4317C59.4509 30.5269 61.9566 33.0325 65.0518 33.0325C68.147 33.0325 70.6526 30.5269 70.6526 27.4317C70.6526 24.3365 68.147 21.8308 65.0518 21.8308C61.9566 21.8308 59.4509 24.3365 59.4509 27.4317Z"  stroke="#828282" stroke-width="0.7" stroke-miterlimit="10"/>
<path d="M22.9435 2.41983C24.5688 1.31463 26.7791 1.1846 26.7791 1.1846L27.8518 1.1521H77.473H78.7049C78.9101 1.20398 79.3203 1.43083 79.3203 1.92313V26.4167C79.3203 26.765 79.0742 27.4616 78.0895 27.4616H71.9357C71.8331 25.2052 70.3972 20.6924 64.8588 20.6924C59.9357 20.6924 58.0895 25.2052 58.0895 27.4616L21.7819 27.3844C21.5767 25.1537 20.0534 20.6924 15.0126 20.6924C9.47416 20.6924 8.22512 25.1537 7.9357 27.3844H3.01732C2.20467 26.6692 1.78207 25.8241 1.78207 25.8241C1.78207 25.8241 2.00958 20.2981 2.07459 18.8353C2.1396 17.3726 3.04977 16.5274 3.04977 16.5274L9.87601 11.5865L11.5664 11.554C11.5664 11.554 21.3507 3.52503 22.9435 2.41983Z" stroke="#828282" stroke-width="0.60984" stroke-miterlimit="10" stroke-linecap="round"/>
</svg>
