<svg width="81" height="35" viewBox="0 0 81 35" fill="none" xmlns="http://www.w3.org/2000/svg">
<path d="M9.806 25.7508L9.75645 26.0977L9.50864 29.468C5.24624 29.468 2.32202 29.468 2.02465 29.4184C1.47946 29.0715 1.08298 24.71 1.18211 24.0161C1.18211 23.9665 1.82642 19.5555 5.79143 18.019C8.24946 17.085 13.1456 16.541 17.1425 16.097L17.2404 16.0861C19.5203 15.8383 21.5028 15.64 22.4941 15.3922C23.5349 15.1444 25.22 14.2027 27.4008 12.9636C31.0188 10.9316 35.5291 8.40386 39.2463 7.8091C41.5261 7.46216 44.8964 6.86741 48.2171 6.91697C51.5874 6.91697 55.5028 7.46216 58.9722 8.40386C61.6982 9.1473 64.2259 10.3864 66.4066 11.4767C68.1909 12.3689 69.7769 13.1619 71.0655 13.4097C72.4037 13.7071 73.9897 13.7566 75.3775 13.8558C76.4678 13.9053 77.8061 14.0044 78.0539 14.1531C78.2521 14.5496 78.0539 17.4738 77.9547 18.6138C77.9547 19.159 77.9052 19.5555 77.9052 19.7537C77.9052 20.3485 78.4008 20.745 78.8964 21.0919C79.3425 21.3893 79.7886 21.7362 79.7886 22.1327C79.7886 23.2727 79.5407 25.1561 79.4416 25.6517C79.3921 25.9986 79.1938 26.3456 77.9547 26.9403C76.7652 27.4855 73.9401 27.7829 73.8906 27.7829C73.5436 27.8324 72.1559 28.0803 71.5116 28.675C71.462 28.5759 71.462 28.5263 71.4125 28.4272L71.3629 28.3776L71.0655 26.2464C70.7186 22.6284 67.6953 19.9024 64.0772 19.9024C60.4591 19.9024 57.4853 22.5788 57.0888 26.0977L56.7419 29.4184H24.0801L23.634 26.0977C23.2871 22.5292 20.2637 19.8528 16.6952 19.8528C13.2754 19.8528 10.3512 22.3805 9.806 25.7508Z"/>
<path d="M47.4489 7.95779L46.4329 15.1444M61.5156 11.4814L61.0096 14.7244M44.7725 8.10648L42.8643 15.3179M60.7069 11.0802L59.6591 14.7641M9.75645 26.0977L9.806 25.7508C10.3512 22.3805 13.2754 19.8528 16.6952 19.8528C20.2637 19.8528 23.2871 22.5292 23.634 26.0977L24.0801 29.4184H56.7419L57.0888 26.0977C57.4853 22.5788 60.4591 19.9024 64.0772 19.9024C67.6952 19.9024 70.7186 22.6284 71.0655 26.2464L71.3629 28.3776L71.4124 28.4272C71.462 28.5263 71.462 28.5759 71.5116 28.675C72.1559 28.0803 73.5436 27.8324 73.8906 27.7829C73.9401 27.7829 76.7652 27.4855 77.9547 26.9403C79.1938 26.3456 79.3921 25.9986 79.4416 25.6517C79.5407 25.1561 79.7886 23.2727 79.7886 22.1327C79.7886 21.7362 79.3425 21.3893 78.8964 21.0919C78.4008 20.745 77.9052 20.3485 77.9052 19.7537C77.9052 19.5555 77.9547 19.159 77.9547 18.6138C78.0539 17.4738 78.2521 14.5496 78.0539 14.1531C77.8061 14.0044 76.4678 13.9053 75.3775 13.8558C73.9897 13.7566 72.4037 13.7071 71.0655 13.4097C69.7769 13.1619 68.1909 12.3689 66.4066 11.4767C64.2259 10.3864 61.6982 9.1473 58.9722 8.40386C55.5028 7.46216 51.5874 6.91697 48.2171 6.91697C44.8964 6.86741 41.5261 7.46216 39.2463 7.8091C35.5291 8.40386 31.0188 10.9316 27.4008 12.9636C25.22 14.2027 23.5349 15.1444 22.4941 15.3922C21.5028 15.64 19.5203 15.8383 17.2404 16.0861C13.2258 16.5321 8.26957 17.0773 5.79143 18.019C1.82642 19.5555 1.18211 23.9665 1.18211 24.0161C1.08298 24.71 1.47946 29.0715 2.02465 29.4184C2.32202 29.468 5.24624 29.468 9.50864 29.468L9.75645 26.0977ZM25.7157 15.8878L26.5582 15.2435C26.5582 15.2435 26.5582 15.2435 26.6078 15.1939C27.153 14.7479 33.9926 9.69249 41.3775 8.50298C42.5669 8.28168 45.2883 7.95779 47.6223 7.95779C51.7856 7.95779 54.5116 8.7508 57.2375 9.64292C57.9314 9.90726 59.5075 10.5251 60.2608 10.882C63.2842 12.2697 66.0101 13.9549 66.0101 13.9549L66.9518 14.5496L58.5261 14.7974L25.7157 15.8878Z" stroke="#828282" stroke-width="0.491161" stroke-miterlimit="10"/>
<path d="M59.6164 14.7976C59.6164 14.7976 58.873 17.7218 57.6835 20.8443C56.8409 22.9755 54.7592 26.4448 53.5697 28.1795H52.2811H28.5901C28.5901 28.1795 25.6164 24.1154 24.6251 19.6548C23.9808 16.8297 25.7346 15.9288 25.7346 15.9288L26.35 15.6211" stroke="#d4d3d3" stroke-width="0.7" stroke-miterlimit="10"/>
<path d="M45.9867 8.05713C45.9867 8.05713 43.459 21.4886 43.459 24.958C43.459 26.3953 43.459 27.4361 43.4094 28.1796" stroke="#d4d3d3" stroke-width="0.7" stroke-miterlimit="10"/>
<path d="M47.4489 7.95779L46.4329 15.1444M61.5156 11.4814L61.0096 14.7244M44.7725 8.10648L42.8643 15.3179M60.7069 11.0802L59.6591 14.7641M9.75645 26.0977L9.806 25.7508C10.3512 22.3805 13.2754 19.8528 16.6952 19.8528C20.2637 19.8528 23.2871 22.5292 23.634 26.0977L24.0801 29.4184H56.7419L57.0888 26.0977C57.4853 22.5788 60.4591 19.9024 64.0772 19.9024C67.6952 19.9024 70.7186 22.6284 71.0655 26.2464L71.3629 28.3776L71.4124 28.4272C71.462 28.5263 71.462 28.5759 71.5116 28.675C72.1559 28.0803 73.5436 27.8324 73.8906 27.7829C73.9401 27.7829 76.7652 27.4855 77.9547 26.9403C79.1938 26.3456 79.3921 25.9986 79.4416 25.6517C79.5407 25.1561 79.7886 23.2727 79.7886 22.1327C79.7886 21.7362 79.3425 21.3893 78.8964 21.0919C78.4008 20.745 77.9052 20.3485 77.9052 19.7537C77.9052 19.5555 77.9547 19.159 77.9547 18.6138C78.0539 17.4738 78.2521 14.5496 78.0539 14.1531C77.8061 14.0044 76.4678 13.9053 75.3775 13.8558C73.9897 13.7566 72.4037 13.7071 71.0655 13.4097C69.7769 13.1619 68.1909 12.3689 66.4066 11.4767C64.2259 10.3864 61.6982 9.1473 58.9722 8.40386C55.5028 7.46216 51.5874 6.91697 48.2171 6.91697C44.8964 6.86741 41.5261 7.46216 39.2463 7.8091C35.5291 8.40386 31.0188 10.9316 27.4008 12.9636C25.22 14.2027 23.5349 15.1444 22.4941 15.3922C21.5028 15.64 19.5203 15.8383 17.2404 16.0861C13.2258 16.5321 8.26957 17.0773 5.79143 18.019C1.82642 19.5555 1.18211 23.9665 1.18211 24.0161C1.08298 24.71 1.47946 29.0715 2.02465 29.4184C2.32202 29.468 5.24624 29.468 9.50864 29.468L9.75645 26.0977ZM25.7157 15.8878L26.5582 15.2435C26.5582 15.2435 26.5582 15.2435 26.6078 15.1939C27.153 14.7479 33.9926 9.69249 41.3775 8.50298C42.5669 8.28168 45.2883 7.95779 47.6223 7.95779C51.7856 7.95779 54.5116 8.7508 57.2375 9.64292C57.9314 9.90726 59.5075 10.5251 60.2608 10.882C63.2842 12.2697 66.0101 13.9549 66.0101 13.9549L66.9518 14.5496L58.5261 14.7974L25.7157 15.8878Z" stroke="#828282" stroke-width="0.7" stroke-miterlimit="10"/>
<path d="M58.2288 27.2351C58.2288 30.3576 60.7565 32.8853 63.8789 32.8853C67.0014 32.8853 69.5291 30.3576 69.5291 27.2351C69.5291 24.1127 67.0014 21.585 63.8789 21.585C60.7565 21.585 58.2288 24.1127 58.2288 27.2351Z" stroke="#828282" stroke-width="0.7" stroke-miterlimit="10"/>
<path d="M11.1442 27.2351C11.1442 30.3576 13.6719 32.8853 16.7943 32.8853C19.9168 32.8853 22.4445 30.3576 22.4445 27.2351C22.4445 24.1127 19.9168 21.585 16.7943 21.585C13.6719 21.585 11.1442 24.1127 11.1442 27.2351Z" stroke="#828282" stroke-width="0.7" stroke-miterlimit="10"/>
</svg>
