<svg width="81" height="35" viewBox="0 0 81 35" fill="none" xmlns="http://www.w3.org/2000/svg">
<path d="M10.796 26.5494L10.7545 26.8398L10.5886 29.7024C10.0908 29.7439 9.6344 29.7439 9.26102 29.7439H9.26097H8.34826C7.1866 29.7439 6.81319 29.661 6.14939 28.7897C5.0707 27.4206 4.82179 25.9685 4.86327 25.7611V25.5122C5.1122 20.7411 6.23237 17.7125 8.09932 17.0072C10.1322 16.2189 14.281 15.97 17.6 15.7211C19.6329 15.5966 21.4169 15.4721 22.2881 15.2647C23.2009 15.0158 24.5285 13.7296 26.188 12.0701C28.6773 9.53937 31.8303 6.46928 34.8174 5.97142C36.477 5.7225 51.9104 5.30762 60.6229 5.30762C64.6472 5.30762 65.8918 5.39059 66.2652 5.47357C66.3897 5.51506 66.5971 5.80547 66.8046 6.09589L66.8048 6.09616C67.0121 6.38649 67.2195 6.67682 67.5513 7.00862L70.9534 11.0329L71.9905 11.5723V11.0744V10.5351C72.4054 10.3691 74.0234 10.0372 74.9776 10.0372C75.1851 10.0372 75.3096 10.0787 75.3511 10.0787C75.5585 11.0744 76.6787 19.0401 76.7616 20.6996C76.2638 20.907 74.3553 21.156 72.6958 21.3219L72.3224 21.3634L73.1522 24.1846C73.2766 25.3462 73.4011 26.6738 73.4011 27.0887C73.0692 27.2547 71.6171 27.5866 70.4555 27.877C67.8832 28.4578 66.6801 28.7897 66.1823 29.1216C66.1408 29.0386 66.0993 28.9142 66.0578 28.8312L66.0163 28.7897L65.7674 27.0057C65.5185 24.0601 63.6515 20.9485 59.1708 20.9485H59.0463C53.321 21.0315 52.4083 25.5122 52.2423 26.8813L51.9519 29.661H25.0678L25.0661 29.6398C25.024 29.1341 24.9382 28.1033 24.57 26.5079C23.9477 23.7697 21.7903 20.8241 17.6415 20.8241H17.5585C13.2023 20.8655 11.2109 23.7697 10.796 26.5494Z" stroke="#FFA780" stroke-width="0.60984" stroke-miterlimit="10"/>
<path d="M41.9949 6.75977L42.3268 28.3749" stroke="#d4d3d3" stroke-width="0.7" stroke-miterlimit="10"/>
<path d="M26.1881 16.3019C26.1881 16.3019 25.3168 17.9199 25.2339 18.5007C25.1094 20.2432 27.0179 28.3333 27.0179 28.3333H43.53L50.2925 28.2089C50.5414 20.1602 55.9763 20.5336 56.7646 18.0444C56.972 17.3806 56.1423 14.7668 55.6444 13.3148C54.3998 9.66383 53.1552 6.55225 53.1552 6.55225" stroke="#d4d3d3" stroke-width="0.7" stroke-miterlimit="10"/>
<path d="M43.6129 6.55225L43.8618 16.3019M40.4391 6.65597L40.3768 16.3019M54.5657 6.46928L58.3825 15.2854M51.9519 6.3863L54.8561 15.7211M10.7545 26.8398L10.796 26.5494C11.2109 23.7697 13.2023 20.8655 17.5585 20.8241H17.6415C21.7903 20.8241 23.9477 23.7697 24.57 26.5079C24.9434 28.1259 25.0263 29.1631 25.0678 29.661H51.9519L52.2423 26.8813C52.4083 25.5122 53.321 21.0315 59.0463 20.9485H59.1708C63.6515 20.9485 65.5185 24.0601 65.7674 27.0057L66.0163 28.7897L66.0578 28.8312C66.0993 28.9142 66.1408 29.0386 66.1823 29.1216C66.6801 28.7897 67.8832 28.4578 70.4555 27.877C71.6171 27.5866 73.0692 27.2547 73.4011 27.0887C73.4011 26.6738 73.2766 25.3462 73.1522 24.1846L72.3224 21.3634L72.6958 21.3219C74.3553 21.156 76.2638 20.907 76.7616 20.6996C76.6787 19.0401 75.5585 11.0744 75.351 10.0787C75.3096 10.0787 75.1851 10.0372 74.9776 10.0372C74.0234 10.0372 72.4054 10.3691 71.9905 10.5351C71.9905 10.784 71.9905 11.0744 71.9905 11.0744V11.5723L70.9534 11.0329L67.5513 7.00862C67.2194 6.67671 67.012 6.3863 66.8046 6.09589C66.5971 5.80547 66.3897 5.51506 66.2652 5.47357C65.8918 5.39059 64.6472 5.30762 60.6229 5.30762C51.9104 5.30762 36.477 5.7225 34.8174 5.97142C31.8303 6.46928 28.6773 9.53937 26.188 12.0701C24.5285 13.7296 23.2009 15.0158 22.2881 15.2647C21.4169 15.4721 19.6329 15.5966 17.6 15.7211C14.281 15.97 10.1322 16.2189 8.09932 17.0072C6.23237 17.7125 5.1122 20.7411 4.86327 25.5122C4.86327 25.6366 4.86327 25.7196 4.86327 25.7611C4.82179 25.9685 5.0707 27.4206 6.14939 28.7897C6.81319 29.661 7.1866 29.7439 8.34826 29.7439C8.59719 29.7439 8.92907 29.7439 9.26097 29.7439C9.63436 29.7439 10.0907 29.7439 10.5886 29.7024L10.7545 26.8398ZM26.5199 15.804C27.1422 14.9743 32.4942 7.50647 34.859 7.00862C35.5643 6.84267 38.1365 6.75969 40.2939 6.67671L42.5342 6.59374C46.3096 6.51076 50.7073 6.42779 54.6072 6.42779C60.9963 6.42779 64.5227 6.55225 65.0621 6.84267C66.4726 7.54796 69.1278 13.6882 69.4598 14.352L69.6257 14.7668L60.4569 15.1402L56.3081 15.4306L48.8818 16.053L46.0191 16.1359L26.2295 16.2189L26.5199 15.804Z" stroke="#828282" stroke-width="0.7" stroke-miterlimit="10"/>
<path d="M11.9161 27.711C11.9161 30.8062 14.4218 33.3118 17.517 33.3118C20.6122 33.3118 23.1178 30.8062 23.1178 27.711C23.1178 24.6158 20.6122 22.1101 17.517 22.1101C14.4218 22.1101 11.9161 24.6158 11.9161 27.711Z" stroke="#828282" stroke-width="0.7" stroke-miterlimit="10"/>
<path d="M53.3268 27.711C53.3268 30.8062 55.8324 33.3118 58.9276 33.3118C62.0228 33.3118 64.5285 30.8062 64.5285 27.711C64.5285 24.6158 62.0228 22.1101 58.9276 22.1101C55.8324 22.1101 53.3268 24.6158 53.3268 27.711Z" stroke="#828282" stroke-width="0.7" stroke-miterlimit="10"/>
</svg>
