<?xml version="1.0" encoding="UTF-8"?>
<svg id="_Слой_2" data-name="Слой 2" xmlns="http://www.w3.org/2000/svg" viewBox="0 0 32 32">
  <defs>
    <style>
      .cls-1 {
        fill: #1254a2;
      }
    </style>
  </defs>
  <g id="_Слой_1-2" data-name="Слой 1">
    <g>
      <path class="cls-1" d="m22.04,32c-1.66-.04-3.05-.39-4.39-.94-3.86-1.57-7.23-3.89-10.14-6.87-2.28-2.34-4.21-4.93-5.66-7.87-.7-1.42-1.3-2.88-1.63-4.44-.21-.97-.3-1.96-.13-2.95.14-.8.5-1.48,1.08-2.05.77-.77,1.54-1.54,2.31-2.31.6-.6,1.3-.92,2.17-.72.42.1.79.32,1.09.63,1.28,1.28,2.56,2.55,3.82,3.84.6.61.88,1.34.62,2.2-.13.44-.4.8-.72,1.12-.91.92-1.82,1.83-2.73,2.75-.26.26-.28.35-.13.7.5,1.21,1.23,2.27,2.05,3.28,1.33,1.65,2.81,3.14,4.51,4.41.85.64,1.77,1.17,2.73,1.63.23.11.41.08.59-.1.95-.96,1.92-1.92,2.88-2.88.72-.72,1.61-.95,2.43-.55.37.18.7.45,1,.73,1.2,1.18,2.38,2.38,3.57,3.58.93.94,1.01,2.16.12,3.14-.82.9-1.68,1.76-2.56,2.61-.85.83-1.91,1.11-2.87,1.07Z"/>
      <path class="cls-1" d="m16.54,0c3.51.15,6.58,1.3,9.3,3.43,2.63,2.06,4.37,4.73,5.42,7.88.49,1.46.7,2.98.74,4.52.02.8-.41,1.39-1.13,1.59-.75.21-1.54-.04-1.86-.66-.15-.29-.21-.64-.23-.96-.07-1.2-.23-2.38-.58-3.53-.57-1.86-1.56-3.47-2.84-4.91-1.61-1.82-3.61-3.01-5.95-3.64-.97-.26-1.96-.41-2.96-.47-.2-.01-.41-.03-.61-.06-.97-.14-1.47-1.11-1.24-1.99C14.82.38,15.37-.03,16.23,0c.12,0,.24,0,.31,0Z"/>
      <path class="cls-1" d="m26.04,15.77c-.06.34-.06.69-.18,1-.25.68-.96,1.04-1.73.94-.7-.09-1.21-.63-1.32-1.41-.08-.54-.09-1.1-.2-1.63-.48-2.23-1.78-3.82-3.82-4.8-.89-.43-1.84-.59-2.82-.61-.65-.01-1.18-.26-1.46-.88-.27-.61-.22-1.22.18-1.77.32-.43.78-.59,1.29-.59,2.24.01,4.26.67,6.06,2.03,1.45,1.1,2.5,2.5,3.21,4.16.48,1.13.72,2.31.81,3.54Z"/>
    </g>
  </g>
</svg>